<?xml version="1.0" encoding="UTF-8" standalone="no"?>
<svg
   xmlns:dc="http://purl.org/dc/elements/1.1/"
   xmlns:cc="http://creativecommons.org/ns#"
   xmlns:rdf="http://www.w3.org/1999/02/22-rdf-syntax-ns#"
   xmlns:svg="http://www.w3.org/2000/svg"
   xmlns="http://www.w3.org/2000/svg"
   xmlns:sodipodi="http://sodipodi.sourceforge.net/DTD/sodipodi-0.dtd"
   xmlns:inkscape="http://www.inkscape.org/namespaces/inkscape"
   width="210mm"
   height="297mm"
   viewBox="0 0 210 297"
   version="1.1"
   id="svg8"
   inkscape:version="1.0.2-2 (e86c870879, 2021-01-15)"
   sodipodi:docname="idfmobilites-logo.svg">
  <defs
     id="defs2" />
  <sodipodi:namedview
     id="base"
     pagecolor="#ffffff"
     bordercolor="#666666"
     borderopacity="1.0"
     inkscape:pageopacity="0.0"
     inkscape:pageshadow="2"
     inkscape:zoom="0.98994949"
     inkscape:cx="405.44367"
     inkscape:cy="178.99094"
     inkscape:document-units="mm"
     inkscape:current-layer="layer1"
     inkscape:document-rotation="0"
     showgrid="false"
     inkscape:window-width="1920"
     inkscape:window-height="1001"
     inkscape:window-x="-9"
     inkscape:window-y="-9"
     inkscape:window-maximized="1" />
  <metadata
     id="metadata5">
    <rdf:RDF>
      <cc:Work
         rdf:about="">
        <dc:format>image/svg+xml</dc:format>
        <dc:type
           rdf:resource="http://purl.org/dc/dcmitype/StillImage" />
        <dc:title></dc:title>
      </cc:Work>
    </rdf:RDF>
  </metadata>
  <g
     inkscape:label="Calque 1"
     inkscape:groupmode="layer"
     id="layer1">
    <g
       id="g904"
       transform="matrix(0.18756172,0,0,0.18756172,-921.1469,-26.191477)">
      <path
         fill="#67b4e7"
         d="m 5789.2,150.3 h -631.4 c -133,0 -240.8,107.8 -240.8,240.8 v 642.8 c 0,133 107.8,240.8 240.8,240.8 h 631.4 c 133,0 240.8,-107.8 240.8,-240.8 V 391.1 c 0,-133 -107.8,-240.8 -240.8,-240.8 z"
         id="path896" />
      <path
         fill="#ffffff"
         d="m 5422.9,496.6 c 47.5,22 109,-9.1 137,-69.5 28,-60.4 12.1,-127.3 -35.4,-149.3 -47.5,-22.1 -109,9 -137,69.5 -28,60.4 -12.1,127.2 35.4,149.3 z"
         id="path898" />
      <path
         fill="#ffffff"
         d="m 5147.9,756.9 c 94.1,-48.6 178,-82.2 285.2,-85 99.3,-2.6 183.6,-45.2 269.8,-89.7 30.3,-15.8 57.3,-43.8 78.3,-70.4 4.2,-5.6 33.6,-49.3 4.7,-34.3 -94.1,48.6 -177.5,82 -284.7,84.8 -99.3,2.6 -184.1,45.4 -270.3,89.9 -30.3,15.8 -57.3,43.8 -78.3,70.4 -4.2,5.6 -33.6,49.3 -4.7,34.3 z"
         id="path900" />
      <path
         fill="#ffffff"
         d="m 5707.4,926.5 c -42.9,-61.9 -81.2,-125.2 -147.6,-165.6 -77.9,-47.9 -163.7,42.4 -214.9,92.8 -80.2,79.4 -139.3,185.2 -203.4,277.8 -15.2,22.2 -6.5,29.8 15.2,15.2 29.5,-19.6 56.3,-46.9 76.1,-75.9 22.6,-32.7 45.2,-65.3 67.8,-97.9 21.2,-30.8 43.8,-83 75.2,-105 115.7,-81.6 237.9,222.3 305.3,267.5 41.5,27.8 114.8,21.4 162.3,21.4 h 24.2 L 5744.1,984 c -13.7,-19.9 -25.5,-41.3 -36.7,-57.5 z"
         id="path902" />
    </g>
  </g>
</svg>
